<svg xmlns="http://www.w3.org/2000/svg" width="256" height="64" viewBox="0 0 256 64">
  <rect x="0" y="0" width="256" height="64" rx="4" fill="#1b1d20"/>
  <rect x="2" y="2" width="252" height="60" rx="2" fill="#60666d"/>
  <rect x="4" y="4" width="248" height="56" rx="0" fill="#3a3e43"/>
  <g fill="#f4f6f8">
    <polygon points="13,14.5 18,14.5 18,49.5 13,49.5"/>
    <polygon points="13,14.5 32,14.5 32,19.5 13,19.5"/>
    <polygon points="13,29.5 32,29.5 32,34.5 13,34.5"/>
    <polygon points="33,20.5 38,20.5 38,28.5 33,28.5"/>
    <polygon points="38,20.5 32,14.5 28.43,14.5 28.43,19.5 29.93,19.5 33,22.57 33,24.07 38,24.07"/>
    <polygon points="38,28.5 32,34.5 28.43,34.5 28.43,29.5 29.93,29.5 33,26.43 33,24.93 38,24.93"/>
    <polygon points="44,49.5 53,14.5 58.16,14.5 49.16,49.5"/>
    <polygon points="69,49.5 60,14.5 54.84,14.5 63.84,49.5"/>
    <polygon points="49,36 64,36 64,41 49,41"/>
    <polygon points="75,14.5 80,14.5 80,49.5 75,49.5"/>
    <polygon points="75,14.5 94,14.5 94,19.5 75,19.5"/>
    <polygon points="75,29.5 94,29.5 94,34.5 75,34.5"/>
    <polygon points="95,20.5 100,20.5 100,28.5 95,28.5"/>
    <polygon points="100,20.5 94,14.5 90.43,14.5 90.43,19.5 91.93,19.5 95,22.57 95,24.07 100,24.07"/>
    <polygon points="100,28.5 94,34.5 90.43,34.5 90.43,29.5 91.93,29.5 95,26.43 95,24.93 100,24.93"/>
    <polygon points="87.61,32 93,32 100,49.5 94.61,49.5"/>
    <polygon points="106,14.5 111,14.5 111,49.5 106,49.5"/>
    <polygon points="124.55,14.5 131,14.5 111,39 111,31.09"/>
    <polygon points="114.16,33 117.84,29.5 131,49.5 125.01,49.5"/>
    <polygon points="137,14.5 142,14.5 142,49.5 137,49.5"/>
    <polygon points="148,14.5 153,14.5 153,49.5 148,49.5"/>
    <polygon points="168,14.5 173,14.5 173,49.5 168,49.5"/>
    <polygon points="148,14.5 153.71,14.5 173,49.5 167.29,49.5"/>
    <polygon points="186.5,14.5 196.5,14.5 196.5,19.5 186.5,19.5"/>
    <polygon points="186.5,44.5 196.5,44.5 196.5,49.5 186.5,49.5"/>
    <polygon points="179,22 184,22 184,42 179,42"/>
    <polygon points="179,22 186.5,14.5 190.07,14.5 190.07,19.5 188.57,19.5 184,24.07 184,25.57 179,25.57"/>
    <polygon points="204,22 196.5,14.5 192.93,14.5 192.93,19.5 194.43,19.5 199,24.07 199,25.57 204,25.57"/>
    <polygon points="204,42 196.5,49.5 192.93,49.5 192.93,44.5 194.43,44.5 199,39.93 199,38.43 204,38.43"/>
    <polygon points="179,42 186.5,49.5 190.07,49.5 190.07,44.5 188.57,44.5 184,39.93 184,38.43 179,38.43"/>
    <polygon points="199,32.5 204,32.5 204,42.5 199,42.5"/>
    <polygon points="192,32.5 204,32.5 204,37.5 192,37.5"/>
    <polygon points="225.5,14.5 232.5,14.5 232.5,34.5 244,34.5 229,49.5 214,34.5 225.5,34.5"/>
  </g>
</svg>
