<svg xmlns="http://www.w3.org/2000/svg" width="512" height="256" viewBox="0 0 512 256">
  <rect x="0" y="0" width="512" height="256" rx="10" fill="#0d3c6b"/>
  <rect x="4" y="4" width="504" height="248" rx="6" fill="#5b9bd9"/>
  <rect x="7" y="7" width="498" height="242" rx="3" fill="#1e6fbf"/>
  <rect x="14" y="14" width="484" height="228" rx="6" fill="#f4f6f8"/>
  <rect x="19" y="19" width="474" height="218" rx="1" fill="#1e6fbf"/>
  <circle cx="85.75" cy="128" r="45" fill="#f4f6f8"/>
  <rect x="76.75" y="137" width="18" height="18" rx="0" fill="#1e6fbf"/>
  <rect x="56.95" y="114.5" width="57.6" height="18" rx="1.89" fill="#1e6fbf"/>
  <rect x="63.25" y="101" width="45" height="45" rx="9.9" fill="#1e6fbf"/>
  <rect x="68.65" y="114.5" width="34.2" height="9" rx="1.8" fill="#f4f6f8"/>
  <g fill="#f4f6f8">
    <polygon points="153,101.75 160.5,101.75 160.5,154.25 153,154.25"/>
    <polygon points="153,101.75 184.5,101.75 184.5,109.25 153,109.25"/>
    <polygon points="153,124.25 181.5,124.25 181.5,131.75 153,131.75"/>
    <polygon points="194,101.75 201.5,101.75 201.5,154.25 194,154.25"/>
    <polygon points="194,101.75 222.5,101.75 222.5,109.25 194,109.25"/>
    <polygon points="194,124.25 222.5,124.25 222.5,131.75 194,131.75"/>
    <polygon points="224,110.75 231.5,110.75 231.5,122.75 224,122.75"/>
    <polygon points="231.5,110.75 222.5,101.75 217.14,101.75 217.14,109.25 219.39,109.25 224,113.86 224,116.11 231.5,116.11"/>
    <polygon points="231.5,122.75 222.5,131.75 217.14,131.75 217.14,124.25 219.39,124.25 224,119.64 224,117.39 231.5,117.39"/>
    <polygon points="251.25,101.75 277.5,101.75 277.5,109.25 251.25,109.25"/>
    <polygon points="249,123.5 268.5,123.5 268.5,131 249,131"/>
    <polygon points="240,113 247.5,113 247.5,122 240,122"/>
    <polygon points="240,113 251.25,101.75 256.61,101.75 256.61,109.25 254.36,109.25 247.5,116.11 247.5,118.36 240,118.36"/>
    <polygon points="240,122 249,131 254.36,131 254.36,123.5 252.11,123.5 247.5,118.89 247.5,116.64 240,116.64"/>
    <polygon points="240,146.75 266.25,146.75 266.25,154.25 240,154.25"/>
    <polygon points="270,132.5 277.5,132.5 277.5,143 270,143"/>
    <polygon points="277.5,132.5 268.5,123.5 263.14,123.5 263.14,131 265.39,131 270,135.61 270,137.86 277.5,137.86"/>
    <polygon points="277.5,143 266.25,154.25 260.89,154.25 260.89,146.75 263.14,146.75 270,139.89 270,137.64 277.5,137.64"/>
    <polygon points="300,101.75 337.5,101.75 337.5,109.25 300,109.25"/>
    <polygon points="315,101.75 322.5,101.75 322.5,154.25 315,154.25"/>
    <polygon points="347,101.75 354.5,101.75 354.5,154.25 347,154.25"/>
    <polygon points="347,101.75 378.5,101.75 378.5,109.25 347,109.25"/>
    <polygon points="347,124.25 375.5,124.25 375.5,131.75 347,131.75"/>
    <polygon points="347,146.75 378.5,146.75 378.5,154.25 347,154.25"/>
    <polygon points="398.25,101.75 413.25,101.75 413.25,109.25 398.25,109.25"/>
    <polygon points="398.25,146.75 413.25,146.75 413.25,154.25 398.25,154.25"/>
    <polygon points="387,113 394.5,113 394.5,143 387,143"/>
    <polygon points="387,113 398.25,101.75 403.61,101.75 403.61,109.25 401.36,109.25 394.5,116.11 394.5,118.36 387,118.36"/>
    <polygon points="424.5,113 413.25,101.75 407.89,101.75 407.89,109.25 410.14,109.25 417,116.11 417,118.36 424.5,118.36"/>
    <polygon points="424.5,143 413.25,154.25 407.89,154.25 407.89,146.75 410.14,146.75 417,139.89 417,137.64 424.5,137.64"/>
    <polygon points="387,143 398.25,154.25 403.61,154.25 403.61,146.75 401.36,146.75 394.5,139.89 394.5,137.64 387,137.64"/>
    <polygon points="434,101.75 441.5,101.75 441.5,154.25 434,154.25"/>
    <polygon points="464,101.75 471.5,101.75 471.5,154.25 464,154.25"/>
    <polygon points="434,124.25 471.5,124.25 471.5,131.75 434,131.75"/>
  </g>
</svg>
