<svg xmlns="http://www.w3.org/2000/svg" width="256" height="256" viewBox="0 0 256 256">
  <g fill="#3a3f44">
    <rect x="0" y="0" width="12" height="256"/>
    <rect x="0" y="0" width="256" height="12"/>
    <rect x="32" y="0" width="12" height="256"/>
    <rect x="0" y="32" width="256" height="12"/>
    <rect x="64" y="0" width="12" height="256"/>
    <rect x="0" y="64" width="256" height="12"/>
    <rect x="96" y="0" width="12" height="256"/>
    <rect x="0" y="96" width="256" height="12"/>
    <rect x="128" y="0" width="12" height="256"/>
    <rect x="0" y="128" width="256" height="12"/>
    <rect x="160" y="0" width="12" height="256"/>
    <rect x="0" y="160" width="256" height="12"/>
    <rect x="192" y="0" width="12" height="256"/>
    <rect x="0" y="192" width="256" height="12"/>
    <rect x="224" y="0" width="12" height="256"/>
    <rect x="0" y="224" width="256" height="12"/>
  </g>
  <g fill="#5a6168">
    <rect x="12" y="3" width="20" height="6"/>
    <rect x="44" y="3" width="20" height="6"/>
    <rect x="76" y="3" width="20" height="6"/>
    <rect x="108" y="3" width="20" height="6"/>
    <rect x="140" y="3" width="20" height="6"/>
    <rect x="172" y="3" width="20" height="6"/>
    <rect x="204" y="3" width="20" height="6"/>
    <rect x="236" y="3" width="20" height="6"/>
    <rect x="12" y="35" width="20" height="6"/>
    <rect x="44" y="35" width="20" height="6"/>
    <rect x="76" y="35" width="20" height="6"/>
    <rect x="108" y="35" width="20" height="6"/>
    <rect x="140" y="35" width="20" height="6"/>
    <rect x="172" y="35" width="20" height="6"/>
    <rect x="204" y="35" width="20" height="6"/>
    <rect x="236" y="35" width="20" height="6"/>
    <rect x="12" y="67" width="20" height="6"/>
    <rect x="44" y="67" width="20" height="6"/>
    <rect x="76" y="67" width="20" height="6"/>
    <rect x="108" y="67" width="20" height="6"/>
    <rect x="140" y="67" width="20" height="6"/>
    <rect x="172" y="67" width="20" height="6"/>
    <rect x="204" y="67" width="20" height="6"/>
    <rect x="236" y="67" width="20" height="6"/>
    <rect x="12" y="99" width="20" height="6"/>
    <rect x="44" y="99" width="20" height="6"/>
    <rect x="76" y="99" width="20" height="6"/>
    <rect x="108" y="99" width="20" height="6"/>
    <rect x="140" y="99" width="20" height="6"/>
    <rect x="172" y="99" width="20" height="6"/>
    <rect x="204" y="99" width="20" height="6"/>
    <rect x="236" y="99" width="20" height="6"/>
    <rect x="12" y="131" width="20" height="6"/>
    <rect x="44" y="131" width="20" height="6"/>
    <rect x="76" y="131" width="20" height="6"/>
    <rect x="108" y="131" width="20" height="6"/>
    <rect x="140" y="131" width="20" height="6"/>
    <rect x="172" y="131" width="20" height="6"/>
    <rect x="204" y="131" width="20" height="6"/>
    <rect x="236" y="131" width="20" height="6"/>
    <rect x="12" y="163" width="20" height="6"/>
    <rect x="44" y="163" width="20" height="6"/>
    <rect x="76" y="163" width="20" height="6"/>
    <rect x="108" y="163" width="20" height="6"/>
    <rect x="140" y="163" width="20" height="6"/>
    <rect x="172" y="163" width="20" height="6"/>
    <rect x="204" y="163" width="20" height="6"/>
    <rect x="236" y="163" width="20" height="6"/>
    <rect x="12" y="195" width="20" height="6"/>
    <rect x="44" y="195" width="20" height="6"/>
    <rect x="76" y="195" width="20" height="6"/>
    <rect x="108" y="195" width="20" height="6"/>
    <rect x="140" y="195" width="20" height="6"/>
    <rect x="172" y="195" width="20" height="6"/>
    <rect x="204" y="195" width="20" height="6"/>
    <rect x="236" y="195" width="20" height="6"/>
    <rect x="12" y="227" width="20" height="6"/>
    <rect x="44" y="227" width="20" height="6"/>
    <rect x="76" y="227" width="20" height="6"/>
    <rect x="108" y="227" width="20" height="6"/>
    <rect x="140" y="227" width="20" height="6"/>
    <rect x="172" y="227" width="20" height="6"/>
    <rect x="204" y="227" width="20" height="6"/>
    <rect x="236" y="227" width="20" height="6"/>
    <rect x="3" y="0" width="6" height="256"/>
    <rect x="35" y="0" width="6" height="256"/>
    <rect x="67" y="0" width="6" height="256"/>
    <rect x="99" y="0" width="6" height="256"/>
    <rect x="131" y="0" width="6" height="256"/>
    <rect x="163" y="0" width="6" height="256"/>
    <rect x="195" y="0" width="6" height="256"/>
    <rect x="227" y="0" width="6" height="256"/>
  </g>
</svg>
