<svg xmlns="http://www.w3.org/2000/svg" width="256" height="256" viewBox="0 0 256 256">
  <rect x="0" y="0" width="256" height="256" fill="#e6e4dc"/>
  <g fill="#cfcdc4">
    <rect x="25" y="56" width="1" height="1"/>
    <rect x="77" y="19" width="1" height="1"/>
    <rect x="13" y="17" width="1" height="1"/>
    <rect x="34" y="12" width="1" height="1"/>
    <rect x="20" y="35" width="1" height="1"/>
    <rect x="59" y="65" width="1" height="1"/>
    <rect x="77" y="48" width="1" height="1"/>
    <rect x="75" y="51" width="1" height="1"/>
    <rect x="20" y="16" width="1" height="1"/>
    <rect x="39" y="76" width="1" height="1"/>
    <rect x="44" y="17" width="1" height="1"/>
    <rect x="38" y="41" width="1" height="1"/>
    <rect x="68" y="49" width="1" height="1"/>
    <rect x="44" y="38" width="1" height="1"/>
    <rect x="24" y="37" width="1" height="1"/>
    <rect x="56" y="28" width="1" height="1"/>
    <rect x="29" y="29" width="1" height="1"/>
    <rect x="10" y="37" width="1" height="1"/>
    <rect x="24" y="77" width="1" height="1"/>
    <rect x="38" y="13" width="1" height="1"/>
    <rect x="7" y="78" width="1" height="1"/>
    <rect x="29" y="35" width="1" height="1"/>
    <rect x="17" y="57" width="1" height="1"/>
    <rect x="71" y="37" width="1" height="1"/>
    <rect x="21" y="76" width="1" height="1"/>
    <rect x="62" y="77" width="1" height="1"/>
    <rect x="28" y="49" width="1" height="1"/>
    <rect x="76" y="42" width="1" height="1"/>
    <rect x="51" y="7" width="1" height="1"/>
    <rect x="64" y="48" width="1" height="1"/>
    <rect x="68" y="9" width="1" height="1"/>
    <rect x="54" y="5" width="1" height="1"/>
    <rect x="20" y="67" width="1" height="1"/>
    <rect x="80" y="19" width="1" height="1"/>
    <rect x="18" y="56" width="1" height="1"/>
    <rect x="47" y="22" width="1" height="1"/>
    <rect x="62" y="75" width="1" height="1"/>
    <rect x="75" y="51" width="1" height="1"/>
    <rect x="41" y="16" width="1" height="1"/>
    <rect x="25" y="75" width="1" height="1"/>
    <rect x="59" y="58" width="1" height="1"/>
    <rect x="12" y="76" width="1" height="1"/>
    <rect x="47" y="56" width="1" height="1"/>
    <rect x="46" y="22" width="1" height="1"/>
    <rect x="5" y="24" width="1" height="1"/>
    <rect x="4" y="36" width="1" height="1"/>
    <rect x="70" y="45" width="1" height="1"/>
    <rect x="6" y="47" width="1" height="1"/>
    <rect x="71" y="21" width="1" height="1"/>
    <rect x="66" y="54" width="1" height="1"/>
    <rect x="41" y="16" width="1" height="1"/>
    <rect x="55" y="64" width="1" height="1"/>
    <rect x="25" y="36" width="1" height="1"/>
    <rect x="37" y="55" width="1" height="1"/>
    <rect x="56" y="38" width="1" height="1"/>
  </g>
  <g fill="#d9d7cf">
    <rect x="20" y="31" width="1" height="1"/>
    <rect x="62" y="42" width="1" height="1"/>
    <rect x="77" y="17" width="1" height="1"/>
    <rect x="22" y="16" width="1" height="1"/>
    <rect x="70" y="15" width="1" height="1"/>
    <rect x="63" y="40" width="1" height="1"/>
    <rect x="25" y="49" width="1" height="1"/>
    <rect x="52" y="43" width="1" height="1"/>
    <rect x="8" y="73" width="1" height="1"/>
    <rect x="4" y="14" width="1" height="1"/>
    <rect x="23" y="65" width="1" height="1"/>
    <rect x="42" y="45" width="1" height="1"/>
    <rect x="21" y="60" width="1" height="1"/>
    <rect x="48" y="39" width="1" height="1"/>
    <rect x="31" y="59" width="1" height="1"/>
    <rect x="7" y="29" width="1" height="1"/>
    <rect x="26" y="79" width="1" height="1"/>
    <rect x="13" y="38" width="1" height="1"/>
  </g>
  <g fill="#c7c5bc">
    <rect x="40" y="14" width="1" height="1"/>
    <rect x="45" y="41" width="1" height="1"/>
    <rect x="53" y="48" width="1" height="1"/>
    <rect x="25" y="79" width="1" height="1"/>
    <rect x="47" y="39" width="1" height="1"/>
    <rect x="12" y="40" width="1" height="1"/>
    <rect x="18" y="56" width="1" height="1"/>
    <rect x="78" y="32" width="1" height="1"/>
    <rect x="51" y="57" width="1" height="1"/>
    <rect x="76" y="74" width="1" height="1"/>
    <rect x="53" y="35" width="1" height="1"/>
    <rect x="16" y="40" width="1" height="1"/>
    <rect x="59" y="72" width="1" height="1"/>
    <rect x="27" y="66" width="1" height="1"/>
    <rect x="40" y="34" width="1" height="1"/>
    <rect x="66" y="65" width="1" height="1"/>
    <rect x="17" y="45" width="1" height="1"/>
    <rect x="65" y="55" width="1" height="1"/>
    <rect x="16" y="48" width="1" height="1"/>
    <rect x="14" y="19" width="1" height="1"/>
    <rect x="40" y="19" width="1" height="1"/>
    <rect x="45" y="8" width="1" height="1"/>
  </g>
  <g fill="#c7c5bc">
    <rect x="68" y="153" width="1" height="1"/>
    <rect x="54" y="151" width="1" height="1"/>
    <rect x="60" y="149" width="1" height="1"/>
    <rect x="5" y="154" width="1" height="1"/>
    <rect x="8" y="145" width="1" height="1"/>
    <rect x="13" y="107" width="1" height="1"/>
    <rect x="20" y="160" width="1" height="1"/>
    <rect x="68" y="159" width="1" height="1"/>
    <rect x="70" y="105" width="1" height="1"/>
    <rect x="59" y="134" width="1" height="1"/>
    <rect x="22" y="151" width="1" height="1"/>
    <rect x="15" y="166" width="1" height="1"/>
    <rect x="5" y="98" width="1" height="1"/>
    <rect x="77" y="154" width="1" height="1"/>
    <rect x="38" y="109" width="1" height="1"/>
    <rect x="44" y="122" width="1" height="1"/>
    <rect x="26" y="107" width="1" height="1"/>
    <rect x="61" y="145" width="1" height="1"/>
    <rect x="13" y="143" width="1" height="1"/>
  </g>
  <g fill="#cfcdc4">
    <rect x="38" y="160" width="1" height="1"/>
    <rect x="65" y="135" width="1" height="1"/>
    <rect x="30" y="117" width="1" height="1"/>
    <rect x="56" y="90" width="1" height="1"/>
    <rect x="53" y="162" width="1" height="1"/>
    <rect x="58" y="139" width="1" height="1"/>
    <rect x="62" y="105" width="1" height="1"/>
    <rect x="73" y="141" width="1" height="1"/>
    <rect x="58" y="154" width="1" height="1"/>
    <rect x="16" y="155" width="1" height="1"/>
    <rect x="10" y="158" width="1" height="1"/>
    <rect x="16" y="165" width="1" height="1"/>
    <rect x="44" y="93" width="1" height="1"/>
    <rect x="5" y="146" width="1" height="1"/>
    <rect x="72" y="125" width="1" height="1"/>
    <rect x="13" y="101" width="1" height="1"/>
    <rect x="77" y="133" width="1" height="1"/>
    <rect x="60" y="130" width="1" height="1"/>
    <rect x="7" y="153" width="1" height="1"/>
    <rect x="55" y="150" width="1" height="1"/>
    <rect x="72" y="93" width="1" height="1"/>
    <rect x="5" y="153" width="1" height="1"/>
    <rect x="10" y="112" width="1" height="1"/>
    <rect x="22" y="94" width="1" height="1"/>
    <rect x="17" y="140" width="1" height="1"/>
    <rect x="77" y="103" width="1" height="1"/>
    <rect x="43" y="95" width="1" height="1"/>
    <rect x="73" y="164" width="1" height="1"/>
    <rect x="54" y="166" width="1" height="1"/>
    <rect x="73" y="102" width="1" height="1"/>
    <rect x="15" y="148" width="1" height="1"/>
    <rect x="6" y="133" width="1" height="1"/>
    <rect x="43" y="119" width="1" height="1"/>
    <rect x="16" y="108" width="1" height="1"/>
    <rect x="37" y="156" width="1" height="1"/>
    <rect x="41" y="129" width="1" height="1"/>
    <rect x="47" y="118" width="1" height="1"/>
    <rect x="16" y="97" width="1" height="1"/>
    <rect x="12" y="161" width="1" height="1"/>
    <rect x="45" y="119" width="1" height="1"/>
    <rect x="44" y="100" width="1" height="1"/>
    <rect x="17" y="141" width="1" height="1"/>
    <rect x="65" y="162" width="1" height="1"/>
    <rect x="44" y="136" width="1" height="1"/>
    <rect x="54" y="128" width="1" height="1"/>
    <rect x="78" y="103" width="1" height="1"/>
    <rect x="44" y="97" width="1" height="1"/>
    <rect x="30" y="130" width="1" height="1"/>
    <rect x="43" y="166" width="1" height="1"/>
    <rect x="20" y="127" width="1" height="1"/>
    <rect x="38" y="166" width="1" height="1"/>
    <rect x="36" y="148" width="1" height="1"/>
    <rect x="47" y="138" width="1" height="1"/>
    <rect x="70" y="114" width="1" height="1"/>
    <rect x="21" y="137" width="1" height="1"/>
  </g>
  <g fill="#d9d7cf">
    <rect x="27" y="149" width="1" height="1"/>
    <rect x="78" y="156" width="1" height="1"/>
    <rect x="31" y="137" width="1" height="1"/>
    <rect x="65" y="124" width="1" height="1"/>
    <rect x="19" y="132" width="1" height="1"/>
    <rect x="11" y="159" width="1" height="1"/>
    <rect x="33" y="98" width="1" height="1"/>
    <rect x="69" y="116" width="1" height="1"/>
    <rect x="79" y="135" width="1" height="1"/>
    <rect x="35" y="151" width="1" height="1"/>
    <rect x="26" y="126" width="1" height="1"/>
    <rect x="65" y="146" width="1" height="1"/>
    <rect x="16" y="93" width="1" height="1"/>
    <rect x="63" y="126" width="1" height="1"/>
    <rect x="7" y="121" width="1" height="1"/>
    <rect x="18" y="129" width="1" height="1"/>
    <rect x="16" y="143" width="1" height="1"/>
    <rect x="66" y="99" width="1" height="1"/>
    <rect x="17" y="135" width="1" height="1"/>
    <rect x="17" y="139" width="1" height="1"/>
    <rect x="48" y="97" width="1" height="1"/>
  </g>
  <g fill="#c7c5bc">
    <rect x="5" y="235" width="1" height="1"/>
    <rect x="36" y="221" width="1" height="1"/>
    <rect x="4" y="198" width="1" height="1"/>
    <rect x="30" y="197" width="1" height="1"/>
    <rect x="79" y="245" width="1" height="1"/>
    <rect x="72" y="213" width="1" height="1"/>
    <rect x="50" y="208" width="1" height="1"/>
    <rect x="62" y="238" width="1" height="1"/>
    <rect x="35" y="211" width="1" height="1"/>
    <rect x="74" y="220" width="1" height="1"/>
    <rect x="40" y="187" width="1" height="1"/>
    <rect x="12" y="251" width="1" height="1"/>
    <rect x="38" y="239" width="1" height="1"/>
    <rect x="79" y="233" width="1" height="1"/>
    <rect x="60" y="233" width="1" height="1"/>
    <rect x="72" y="192" width="1" height="1"/>
    <rect x="16" y="240" width="1" height="1"/>
    <rect x="76" y="251" width="1" height="1"/>
    <rect x="66" y="249" width="1" height="1"/>
    <rect x="79" y="234" width="1" height="1"/>
    <rect x="65" y="203" width="1" height="1"/>
    <rect x="36" y="190" width="1" height="1"/>
    <rect x="36" y="225" width="1" height="1"/>
  </g>
  <g fill="#cfcdc4">
    <rect x="64" y="239" width="1" height="1"/>
    <rect x="33" y="251" width="1" height="1"/>
    <rect x="65" y="222" width="1" height="1"/>
    <rect x="10" y="209" width="1" height="1"/>
    <rect x="41" y="196" width="1" height="1"/>
    <rect x="18" y="243" width="1" height="1"/>
    <rect x="53" y="203" width="1" height="1"/>
    <rect x="13" y="232" width="1" height="1"/>
    <rect x="22" y="246" width="1" height="1"/>
    <rect x="52" y="196" width="1" height="1"/>
    <rect x="80" y="206" width="1" height="1"/>
    <rect x="63" y="180" width="1" height="1"/>
    <rect x="23" y="201" width="1" height="1"/>
    <rect x="18" y="178" width="1" height="1"/>
    <rect x="29" y="192" width="1" height="1"/>
    <rect x="39" y="249" width="1" height="1"/>
    <rect x="76" y="179" width="1" height="1"/>
    <rect x="51" y="207" width="1" height="1"/>
    <rect x="12" y="193" width="1" height="1"/>
    <rect x="41" y="194" width="1" height="1"/>
    <rect x="16" y="230" width="1" height="1"/>
    <rect x="20" y="237" width="1" height="1"/>
    <rect x="39" y="242" width="1" height="1"/>
    <rect x="80" y="225" width="1" height="1"/>
    <rect x="21" y="179" width="1" height="1"/>
    <rect x="70" y="231" width="1" height="1"/>
    <rect x="13" y="250" width="1" height="1"/>
    <rect x="10" y="196" width="1" height="1"/>
    <rect x="70" y="215" width="1" height="1"/>
    <rect x="80" y="182" width="1" height="1"/>
    <rect x="80" y="217" width="1" height="1"/>
    <rect x="38" y="194" width="1" height="1"/>
    <rect x="60" y="178" width="1" height="1"/>
    <rect x="41" y="242" width="1" height="1"/>
    <rect x="45" y="222" width="1" height="1"/>
    <rect x="47" y="235" width="1" height="1"/>
    <rect x="19" y="225" width="1" height="1"/>
    <rect x="43" y="179" width="1" height="1"/>
    <rect x="59" y="220" width="1" height="1"/>
    <rect x="26" y="195" width="1" height="1"/>
    <rect x="34" y="203" width="1" height="1"/>
    <rect x="60" y="231" width="1" height="1"/>
    <rect x="69" y="222" width="1" height="1"/>
    <rect x="72" y="176" width="1" height="1"/>
    <rect x="70" y="191" width="1" height="1"/>
    <rect x="43" y="205" width="1" height="1"/>
    <rect x="21" y="224" width="1" height="1"/>
    <rect x="14" y="248" width="1" height="1"/>
    <rect x="32" y="210" width="1" height="1"/>
    <rect x="70" y="193" width="1" height="1"/>
    <rect x="43" y="241" width="1" height="1"/>
  </g>
  <g fill="#d9d7cf">
    <rect x="57" y="216" width="1" height="1"/>
    <rect x="50" y="225" width="1" height="1"/>
    <rect x="75" y="178" width="1" height="1"/>
    <rect x="67" y="215" width="1" height="1"/>
    <rect x="76" y="202" width="1" height="1"/>
    <rect x="17" y="201" width="1" height="1"/>
    <rect x="53" y="197" width="1" height="1"/>
    <rect x="8" y="215" width="1" height="1"/>
    <rect x="49" y="224" width="1" height="1"/>
    <rect x="65" y="237" width="1" height="1"/>
    <rect x="70" y="206" width="1" height="1"/>
    <rect x="80" y="247" width="1" height="1"/>
    <rect x="10" y="182" width="1" height="1"/>
    <rect x="18" y="247" width="1" height="1"/>
    <rect x="77" y="191" width="1" height="1"/>
    <rect x="68" y="234" width="1" height="1"/>
    <rect x="5" y="222" width="1" height="1"/>
    <rect x="54" y="210" width="1" height="1"/>
    <rect x="21" y="185" width="1" height="1"/>
    <rect x="51" y="185" width="1" height="1"/>
    <rect x="44" y="222" width="1" height="1"/>
  </g>
  <g fill="#d9d7cf">
    <rect x="103" y="6" width="1" height="1"/>
    <rect x="90" y="51" width="1" height="1"/>
    <rect x="108" y="75" width="1" height="1"/>
    <rect x="99" y="54" width="1" height="1"/>
    <rect x="139" y="19" width="1" height="1"/>
    <rect x="124" y="59" width="1" height="1"/>
    <rect x="114" y="5" width="1" height="1"/>
    <rect x="126" y="16" width="1" height="1"/>
    <rect x="127" y="49" width="1" height="1"/>
    <rect x="107" y="26" width="1" height="1"/>
    <rect x="153" y="5" width="1" height="1"/>
    <rect x="135" y="24" width="1" height="1"/>
    <rect x="125" y="80" width="1" height="1"/>
    <rect x="157" y="76" width="1" height="1"/>
    <rect x="131" y="55" width="1" height="1"/>
    <rect x="122" y="49" width="1" height="1"/>
    <rect x="154" y="38" width="1" height="1"/>
    <rect x="121" y="80" width="1" height="1"/>
    <rect x="107" y="19" width="1" height="1"/>
    <rect x="104" y="45" width="1" height="1"/>
    <rect x="125" y="41" width="1" height="1"/>
    <rect x="91" y="80" width="1" height="1"/>
    <rect x="115" y="9" width="1" height="1"/>
    <rect x="130" y="21" width="1" height="1"/>
  </g>
  <g fill="#c7c5bc">
    <rect x="162" y="6" width="1" height="1"/>
    <rect x="129" y="53" width="1" height="1"/>
    <rect x="149" y="29" width="1" height="1"/>
    <rect x="144" y="32" width="1" height="1"/>
    <rect x="138" y="78" width="1" height="1"/>
    <rect x="150" y="36" width="1" height="1"/>
    <rect x="133" y="14" width="1" height="1"/>
    <rect x="110" y="77" width="1" height="1"/>
    <rect x="162" y="16" width="1" height="1"/>
    <rect x="147" y="25" width="1" height="1"/>
    <rect x="163" y="73" width="1" height="1"/>
    <rect x="119" y="77" width="1" height="1"/>
    <rect x="96" y="78" width="1" height="1"/>
    <rect x="140" y="30" width="1" height="1"/>
    <rect x="144" y="42" width="1" height="1"/>
    <rect x="99" y="51" width="1" height="1"/>
    <rect x="117" y="49" width="1" height="1"/>
    <rect x="159" y="19" width="1" height="1"/>
    <rect x="110" y="46" width="1" height="1"/>
  </g>
  <g fill="#cfcdc4">
    <rect x="135" y="31" width="1" height="1"/>
    <rect x="131" y="36" width="1" height="1"/>
    <rect x="126" y="17" width="1" height="1"/>
    <rect x="101" y="7" width="1" height="1"/>
    <rect x="95" y="78" width="1" height="1"/>
    <rect x="114" y="79" width="1" height="1"/>
    <rect x="96" y="8" width="1" height="1"/>
    <rect x="128" y="18" width="1" height="1"/>
    <rect x="147" y="43" width="1" height="1"/>
    <rect x="119" y="71" width="1" height="1"/>
    <rect x="115" y="69" width="1" height="1"/>
    <rect x="98" y="75" width="1" height="1"/>
    <rect x="132" y="71" width="1" height="1"/>
    <rect x="156" y="74" width="1" height="1"/>
    <rect x="125" y="48" width="1" height="1"/>
    <rect x="123" y="45" width="1" height="1"/>
    <rect x="111" y="72" width="1" height="1"/>
    <rect x="124" y="45" width="1" height="1"/>
    <rect x="99" y="49" width="1" height="1"/>
    <rect x="105" y="75" width="1" height="1"/>
    <rect x="154" y="70" width="1" height="1"/>
    <rect x="161" y="24" width="1" height="1"/>
    <rect x="101" y="15" width="1" height="1"/>
    <rect x="102" y="5" width="1" height="1"/>
    <rect x="154" y="66" width="1" height="1"/>
    <rect x="154" y="63" width="1" height="1"/>
    <rect x="141" y="33" width="1" height="1"/>
    <rect x="110" y="79" width="1" height="1"/>
    <rect x="165" y="22" width="1" height="1"/>
    <rect x="104" y="39" width="1" height="1"/>
    <rect x="143" y="19" width="1" height="1"/>
    <rect x="137" y="28" width="1" height="1"/>
    <rect x="142" y="72" width="1" height="1"/>
    <rect x="115" y="13" width="1" height="1"/>
    <rect x="143" y="75" width="1" height="1"/>
    <rect x="123" y="56" width="1" height="1"/>
    <rect x="153" y="15" width="1" height="1"/>
    <rect x="142" y="49" width="1" height="1"/>
    <rect x="138" y="47" width="1" height="1"/>
    <rect x="147" y="16" width="1" height="1"/>
    <rect x="110" y="48" width="1" height="1"/>
    <rect x="153" y="35" width="1" height="1"/>
    <rect x="127" y="40" width="1" height="1"/>
    <rect x="109" y="67" width="1" height="1"/>
    <rect x="149" y="34" width="1" height="1"/>
    <rect x="112" y="12" width="1" height="1"/>
    <rect x="165" y="15" width="1" height="1"/>
    <rect x="147" y="57" width="1" height="1"/>
    <rect x="140" y="31" width="1" height="1"/>
    <rect x="94" y="54" width="1" height="1"/>
    <rect x="99" y="34" width="1" height="1"/>
    <rect x="115" y="72" width="1" height="1"/>
  </g>
  <g fill="#d9d7cf">
    <rect x="102" y="214" width="1" height="1"/>
    <rect x="96" y="198" width="1" height="1"/>
    <rect x="129" y="175" width="1" height="1"/>
    <rect x="148" y="192" width="1" height="1"/>
    <rect x="116" y="210" width="1" height="1"/>
    <rect x="128" y="207" width="1" height="1"/>
    <rect x="99" y="235" width="1" height="1"/>
    <rect x="100" y="178" width="1" height="1"/>
    <rect x="109" y="206" width="1" height="1"/>
    <rect x="113" y="222" width="1" height="1"/>
    <rect x="166" y="239" width="1" height="1"/>
    <rect x="113" y="231" width="1" height="1"/>
    <rect x="115" y="202" width="1" height="1"/>
    <rect x="101" y="202" width="1" height="1"/>
    <rect x="145" y="237" width="1" height="1"/>
    <rect x="137" y="205" width="1" height="1"/>
    <rect x="146" y="202" width="1" height="1"/>
    <rect x="97" y="251" width="1" height="1"/>
    <rect x="163" y="232" width="1" height="1"/>
    <rect x="123" y="182" width="1" height="1"/>
    <rect x="100" y="245" width="1" height="1"/>
    <rect x="135" y="196" width="1" height="1"/>
    <rect x="135" y="205" width="1" height="1"/>
    <rect x="100" y="180" width="1" height="1"/>
    <rect x="155" y="212" width="1" height="1"/>
    <rect x="102" y="237" width="1" height="1"/>
    <rect x="119" y="179" width="1" height="1"/>
    <rect x="111" y="207" width="1" height="1"/>
    <rect x="160" y="224" width="1" height="1"/>
  </g>
  <g fill="#cfcdc4">
    <rect x="108" y="227" width="1" height="1"/>
    <rect x="149" y="237" width="1" height="1"/>
    <rect x="109" y="189" width="1" height="1"/>
    <rect x="128" y="247" width="1" height="1"/>
    <rect x="118" y="199" width="1" height="1"/>
    <rect x="147" y="210" width="1" height="1"/>
    <rect x="146" y="183" width="1" height="1"/>
    <rect x="139" y="241" width="1" height="1"/>
    <rect x="111" y="237" width="1" height="1"/>
    <rect x="118" y="201" width="1" height="1"/>
    <rect x="118" y="180" width="1" height="1"/>
    <rect x="89" y="177" width="1" height="1"/>
    <rect x="123" y="179" width="1" height="1"/>
    <rect x="98" y="228" width="1" height="1"/>
    <rect x="117" y="175" width="1" height="1"/>
    <rect x="151" y="239" width="1" height="1"/>
    <rect x="116" y="238" width="1" height="1"/>
    <rect x="92" y="187" width="1" height="1"/>
    <rect x="142" y="220" width="1" height="1"/>
    <rect x="164" y="219" width="1" height="1"/>
    <rect x="97" y="225" width="1" height="1"/>
    <rect x="138" y="227" width="1" height="1"/>
    <rect x="161" y="216" width="1" height="1"/>
    <rect x="117" y="208" width="1" height="1"/>
    <rect x="157" y="175" width="1" height="1"/>
    <rect x="145" y="245" width="1" height="1"/>
    <rect x="106" y="210" width="1" height="1"/>
    <rect x="163" y="242" width="1" height="1"/>
    <rect x="146" y="219" width="1" height="1"/>
    <rect x="134" y="235" width="1" height="1"/>
    <rect x="135" y="237" width="1" height="1"/>
    <rect x="109" y="237" width="1" height="1"/>
    <rect x="97" y="215" width="1" height="1"/>
    <rect x="141" y="230" width="1" height="1"/>
    <rect x="158" y="248" width="1" height="1"/>
    <rect x="143" y="250" width="1" height="1"/>
    <rect x="120" y="197" width="1" height="1"/>
    <rect x="127" y="206" width="1" height="1"/>
    <rect x="131" y="228" width="1" height="1"/>
    <rect x="121" y="234" width="1" height="1"/>
    <rect x="135" y="216" width="1" height="1"/>
    <rect x="160" y="213" width="1" height="1"/>
    <rect x="147" y="200" width="1" height="1"/>
    <rect x="154" y="219" width="1" height="1"/>
    <rect x="106" y="190" width="1" height="1"/>
    <rect x="115" y="179" width="1" height="1"/>
    <rect x="157" y="208" width="1" height="1"/>
  </g>
  <g fill="#c7c5bc">
    <rect x="130" y="229" width="1" height="1"/>
    <rect x="155" y="234" width="1" height="1"/>
    <rect x="123" y="188" width="1" height="1"/>
    <rect x="91" y="249" width="1" height="1"/>
    <rect x="102" y="219" width="1" height="1"/>
    <rect x="137" y="214" width="1" height="1"/>
    <rect x="106" y="217" width="1" height="1"/>
    <rect x="104" y="196" width="1" height="1"/>
    <rect x="139" y="207" width="1" height="1"/>
    <rect x="121" y="197" width="1" height="1"/>
    <rect x="134" y="181" width="1" height="1"/>
    <rect x="163" y="219" width="1" height="1"/>
    <rect x="106" y="251" width="1" height="1"/>
    <rect x="153" y="187" width="1" height="1"/>
    <rect x="163" y="247" width="1" height="1"/>
    <rect x="111" y="208" width="1" height="1"/>
    <rect x="149" y="200" width="1" height="1"/>
    <rect x="124" y="184" width="1" height="1"/>
    <rect x="123" y="202" width="1" height="1"/>
  </g>
  <g fill="#c7c5bc">
    <rect x="178" y="59" width="1" height="1"/>
    <rect x="178" y="42" width="1" height="1"/>
    <rect x="180" y="17" width="1" height="1"/>
    <rect x="178" y="39" width="1" height="1"/>
    <rect x="199" y="10" width="1" height="1"/>
    <rect x="236" y="38" width="1" height="1"/>
    <rect x="212" y="26" width="1" height="1"/>
    <rect x="237" y="54" width="1" height="1"/>
    <rect x="180" y="66" width="1" height="1"/>
    <rect x="198" y="18" width="1" height="1"/>
    <rect x="220" y="20" width="1" height="1"/>
    <rect x="232" y="53" width="1" height="1"/>
    <rect x="200" y="18" width="1" height="1"/>
    <rect x="211" y="7" width="1" height="1"/>
    <rect x="190" y="36" width="1" height="1"/>
    <rect x="203" y="60" width="1" height="1"/>
    <rect x="181" y="12" width="1" height="1"/>
    <rect x="188" y="11" width="1" height="1"/>
  </g>
  <g fill="#cfcdc4">
    <rect x="190" y="58" width="1" height="1"/>
    <rect x="176" y="30" width="1" height="1"/>
    <rect x="186" y="62" width="1" height="1"/>
    <rect x="227" y="59" width="1" height="1"/>
    <rect x="181" y="5" width="1" height="1"/>
    <rect x="203" y="61" width="1" height="1"/>
    <rect x="187" y="11" width="1" height="1"/>
    <rect x="180" y="42" width="1" height="1"/>
    <rect x="237" y="13" width="1" height="1"/>
    <rect x="249" y="12" width="1" height="1"/>
    <rect x="180" y="37" width="1" height="1"/>
    <rect x="216" y="17" width="1" height="1"/>
    <rect x="244" y="35" width="1" height="1"/>
    <rect x="245" y="54" width="1" height="1"/>
    <rect x="226" y="60" width="1" height="1"/>
    <rect x="248" y="7" width="1" height="1"/>
    <rect x="194" y="32" width="1" height="1"/>
    <rect x="209" y="14" width="1" height="1"/>
    <rect x="200" y="55" width="1" height="1"/>
    <rect x="226" y="25" width="1" height="1"/>
    <rect x="193" y="21" width="1" height="1"/>
    <rect x="212" y="70" width="1" height="1"/>
    <rect x="246" y="18" width="1" height="1"/>
    <rect x="191" y="20" width="1" height="1"/>
    <rect x="219" y="21" width="1" height="1"/>
    <rect x="243" y="18" width="1" height="1"/>
    <rect x="237" y="15" width="1" height="1"/>
    <rect x="183" y="59" width="1" height="1"/>
    <rect x="207" y="58" width="1" height="1"/>
    <rect x="175" y="68" width="1" height="1"/>
    <rect x="187" y="6" width="1" height="1"/>
    <rect x="177" y="80" width="1" height="1"/>
    <rect x="178" y="63" width="1" height="1"/>
    <rect x="196" y="75" width="1" height="1"/>
    <rect x="226" y="45" width="1" height="1"/>
    <rect x="193" y="25" width="1" height="1"/>
    <rect x="188" y="38" width="1" height="1"/>
    <rect x="238" y="65" width="1" height="1"/>
    <rect x="245" y="43" width="1" height="1"/>
    <rect x="210" y="76" width="1" height="1"/>
    <rect x="183" y="11" width="1" height="1"/>
    <rect x="184" y="57" width="1" height="1"/>
    <rect x="191" y="5" width="1" height="1"/>
    <rect x="240" y="44" width="1" height="1"/>
    <rect x="251" y="20" width="1" height="1"/>
    <rect x="183" y="37" width="1" height="1"/>
  </g>
  <g fill="#d9d7cf">
    <rect x="227" y="58" width="1" height="1"/>
    <rect x="225" y="72" width="1" height="1"/>
    <rect x="207" y="65" width="1" height="1"/>
    <rect x="183" y="61" width="1" height="1"/>
    <rect x="249" y="80" width="1" height="1"/>
    <rect x="193" y="21" width="1" height="1"/>
    <rect x="228" y="25" width="1" height="1"/>
    <rect x="180" y="66" width="1" height="1"/>
    <rect x="226" y="12" width="1" height="1"/>
    <rect x="175" y="18" width="1" height="1"/>
    <rect x="190" y="80" width="1" height="1"/>
    <rect x="216" y="51" width="1" height="1"/>
    <rect x="192" y="60" width="1" height="1"/>
    <rect x="212" y="67" width="1" height="1"/>
    <rect x="234" y="39" width="1" height="1"/>
    <rect x="236" y="45" width="1" height="1"/>
    <rect x="224" y="19" width="1" height="1"/>
    <rect x="178" y="38" width="1" height="1"/>
    <rect x="231" y="75" width="1" height="1"/>
    <rect x="202" y="18" width="1" height="1"/>
    <rect x="231" y="44" width="1" height="1"/>
    <rect x="247" y="63" width="1" height="1"/>
    <rect x="234" y="9" width="1" height="1"/>
    <rect x="181" y="30" width="1" height="1"/>
    <rect x="210" y="57" width="1" height="1"/>
    <rect x="248" y="65" width="1" height="1"/>
    <rect x="242" y="4" width="1" height="1"/>
    <rect x="214" y="26" width="1" height="1"/>
    <rect x="187" y="7" width="1" height="1"/>
    <rect x="224" y="63" width="1" height="1"/>
    <rect x="221" y="8" width="1" height="1"/>
  </g>
  <g fill="#cfcdc4">
    <rect x="193" y="94" width="1" height="1"/>
    <rect x="236" y="127" width="1" height="1"/>
    <rect x="216" y="134" width="1" height="1"/>
    <rect x="205" y="109" width="1" height="1"/>
    <rect x="197" y="101" width="1" height="1"/>
    <rect x="191" y="162" width="1" height="1"/>
    <rect x="185" y="90" width="1" height="1"/>
    <rect x="227" y="126" width="1" height="1"/>
    <rect x="178" y="109" width="1" height="1"/>
    <rect x="189" y="118" width="1" height="1"/>
    <rect x="177" y="150" width="1" height="1"/>
    <rect x="244" y="160" width="1" height="1"/>
    <rect x="221" y="153" width="1" height="1"/>
    <rect x="202" y="156" width="1" height="1"/>
    <rect x="216" y="96" width="1" height="1"/>
    <rect x="190" y="135" width="1" height="1"/>
    <rect x="232" y="125" width="1" height="1"/>
    <rect x="231" y="158" width="1" height="1"/>
    <rect x="222" y="129" width="1" height="1"/>
    <rect x="179" y="107" width="1" height="1"/>
    <rect x="243" y="159" width="1" height="1"/>
    <rect x="221" y="146" width="1" height="1"/>
    <rect x="199" y="149" width="1" height="1"/>
    <rect x="219" y="118" width="1" height="1"/>
    <rect x="195" y="136" width="1" height="1"/>
    <rect x="213" y="165" width="1" height="1"/>
    <rect x="223" y="117" width="1" height="1"/>
    <rect x="228" y="118" width="1" height="1"/>
    <rect x="205" y="102" width="1" height="1"/>
    <rect x="214" y="153" width="1" height="1"/>
    <rect x="235" y="119" width="1" height="1"/>
    <rect x="233" y="94" width="1" height="1"/>
    <rect x="181" y="136" width="1" height="1"/>
    <rect x="183" y="148" width="1" height="1"/>
    <rect x="189" y="122" width="1" height="1"/>
    <rect x="231" y="106" width="1" height="1"/>
    <rect x="196" y="131" width="1" height="1"/>
    <rect x="245" y="132" width="1" height="1"/>
    <rect x="249" y="126" width="1" height="1"/>
    <rect x="243" y="138" width="1" height="1"/>
    <rect x="228" y="140" width="1" height="1"/>
    <rect x="218" y="123" width="1" height="1"/>
    <rect x="189" y="123" width="1" height="1"/>
    <rect x="191" y="110" width="1" height="1"/>
    <rect x="185" y="148" width="1" height="1"/>
    <rect x="209" y="95" width="1" height="1"/>
    <rect x="180" y="94" width="1" height="1"/>
  </g>
  <g fill="#c7c5bc">
    <rect x="179" y="153" width="1" height="1"/>
    <rect x="218" y="161" width="1" height="1"/>
    <rect x="180" y="104" width="1" height="1"/>
    <rect x="210" y="103" width="1" height="1"/>
    <rect x="191" y="112" width="1" height="1"/>
    <rect x="196" y="135" width="1" height="1"/>
    <rect x="234" y="132" width="1" height="1"/>
    <rect x="179" y="97" width="1" height="1"/>
    <rect x="216" y="106" width="1" height="1"/>
    <rect x="218" y="124" width="1" height="1"/>
    <rect x="230" y="122" width="1" height="1"/>
    <rect x="240" y="142" width="1" height="1"/>
    <rect x="226" y="146" width="1" height="1"/>
    <rect x="196" y="158" width="1" height="1"/>
    <rect x="246" y="116" width="1" height="1"/>
    <rect x="235" y="161" width="1" height="1"/>
    <rect x="180" y="111" width="1" height="1"/>
    <rect x="229" y="129" width="1" height="1"/>
  </g>
  <g fill="#d9d7cf">
    <rect x="195" y="120" width="1" height="1"/>
    <rect x="204" y="109" width="1" height="1"/>
    <rect x="183" y="136" width="1" height="1"/>
    <rect x="231" y="165" width="1" height="1"/>
    <rect x="179" y="125" width="1" height="1"/>
    <rect x="251" y="116" width="1" height="1"/>
    <rect x="218" y="134" width="1" height="1"/>
    <rect x="236" y="139" width="1" height="1"/>
    <rect x="182" y="132" width="1" height="1"/>
    <rect x="212" y="156" width="1" height="1"/>
    <rect x="190" y="154" width="1" height="1"/>
    <rect x="250" y="125" width="1" height="1"/>
    <rect x="178" y="111" width="1" height="1"/>
    <rect x="197" y="156" width="1" height="1"/>
    <rect x="241" y="98" width="1" height="1"/>
    <rect x="246" y="144" width="1" height="1"/>
    <rect x="218" y="115" width="1" height="1"/>
    <rect x="243" y="112" width="1" height="1"/>
    <rect x="214" y="123" width="1" height="1"/>
    <rect x="205" y="141" width="1" height="1"/>
    <rect x="219" y="158" width="1" height="1"/>
    <rect x="177" y="94" width="1" height="1"/>
    <rect x="192" y="116" width="1" height="1"/>
    <rect x="218" y="149" width="1" height="1"/>
    <rect x="205" y="155" width="1" height="1"/>
    <rect x="247" y="128" width="1" height="1"/>
    <rect x="181" y="127" width="1" height="1"/>
    <rect x="208" y="148" width="1" height="1"/>
    <rect x="228" y="143" width="1" height="1"/>
    <rect x="176" y="153" width="1" height="1"/>
  </g>
  <g fill="#c7c5bc">
    <rect x="183" y="199" width="1" height="1"/>
    <rect x="233" y="177" width="1" height="1"/>
    <rect x="237" y="235" width="1" height="1"/>
    <rect x="206" y="198" width="1" height="1"/>
    <rect x="181" y="204" width="1" height="1"/>
    <rect x="228" y="233" width="1" height="1"/>
    <rect x="180" y="225" width="1" height="1"/>
    <rect x="213" y="188" width="1" height="1"/>
    <rect x="192" y="248" width="1" height="1"/>
    <rect x="216" y="230" width="1" height="1"/>
    <rect x="250" y="175" width="1" height="1"/>
    <rect x="213" y="209" width="1" height="1"/>
    <rect x="176" y="183" width="1" height="1"/>
    <rect x="232" y="209" width="1" height="1"/>
    <rect x="221" y="211" width="1" height="1"/>
    <rect x="196" y="225" width="1" height="1"/>
    <rect x="189" y="214" width="1" height="1"/>
    <rect x="234" y="226" width="1" height="1"/>
    <rect x="251" y="194" width="1" height="1"/>
    <rect x="233" y="186" width="1" height="1"/>
  </g>
  <g fill="#cfcdc4">
    <rect x="243" y="221" width="1" height="1"/>
    <rect x="194" y="188" width="1" height="1"/>
    <rect x="250" y="249" width="1" height="1"/>
    <rect x="186" y="224" width="1" height="1"/>
    <rect x="216" y="180" width="1" height="1"/>
    <rect x="230" y="221" width="1" height="1"/>
    <rect x="192" y="203" width="1" height="1"/>
    <rect x="244" y="203" width="1" height="1"/>
    <rect x="180" y="188" width="1" height="1"/>
    <rect x="240" y="193" width="1" height="1"/>
    <rect x="202" y="192" width="1" height="1"/>
    <rect x="250" y="188" width="1" height="1"/>
    <rect x="249" y="216" width="1" height="1"/>
    <rect x="245" y="194" width="1" height="1"/>
    <rect x="195" y="228" width="1" height="1"/>
    <rect x="177" y="229" width="1" height="1"/>
    <rect x="195" y="218" width="1" height="1"/>
    <rect x="225" y="228" width="1" height="1"/>
    <rect x="211" y="217" width="1" height="1"/>
    <rect x="249" y="236" width="1" height="1"/>
    <rect x="240" y="225" width="1" height="1"/>
    <rect x="175" y="191" width="1" height="1"/>
    <rect x="204" y="182" width="1" height="1"/>
    <rect x="191" y="185" width="1" height="1"/>
    <rect x="218" y="201" width="1" height="1"/>
    <rect x="233" y="249" width="1" height="1"/>
    <rect x="198" y="245" width="1" height="1"/>
    <rect x="196" y="208" width="1" height="1"/>
    <rect x="204" y="195" width="1" height="1"/>
    <rect x="196" y="205" width="1" height="1"/>
    <rect x="229" y="194" width="1" height="1"/>
    <rect x="206" y="181" width="1" height="1"/>
    <rect x="213" y="236" width="1" height="1"/>
    <rect x="244" y="177" width="1" height="1"/>
    <rect x="230" y="250" width="1" height="1"/>
    <rect x="201" y="230" width="1" height="1"/>
    <rect x="236" y="193" width="1" height="1"/>
    <rect x="225" y="214" width="1" height="1"/>
    <rect x="210" y="199" width="1" height="1"/>
    <rect x="212" y="233" width="1" height="1"/>
    <rect x="201" y="221" width="1" height="1"/>
    <rect x="183" y="246" width="1" height="1"/>
    <rect x="188" y="185" width="1" height="1"/>
    <rect x="230" y="236" width="1" height="1"/>
    <rect x="199" y="244" width="1" height="1"/>
    <rect x="176" y="209" width="1" height="1"/>
    <rect x="233" y="219" width="1" height="1"/>
    <rect x="192" y="177" width="1" height="1"/>
    <rect x="240" y="189" width="1" height="1"/>
    <rect x="206" y="205" width="1" height="1"/>
    <rect x="196" y="224" width="1" height="1"/>
    <rect x="201" y="247" width="1" height="1"/>
  </g>
  <g fill="#d9d7cf">
    <rect x="218" y="188" width="1" height="1"/>
    <rect x="196" y="225" width="1" height="1"/>
    <rect x="192" y="232" width="1" height="1"/>
    <rect x="236" y="241" width="1" height="1"/>
    <rect x="179" y="243" width="1" height="1"/>
    <rect x="240" y="187" width="1" height="1"/>
    <rect x="216" y="232" width="1" height="1"/>
    <rect x="184" y="178" width="1" height="1"/>
    <rect x="243" y="194" width="1" height="1"/>
    <rect x="203" y="194" width="1" height="1"/>
    <rect x="181" y="201" width="1" height="1"/>
    <rect x="230" y="188" width="1" height="1"/>
    <rect x="209" y="229" width="1" height="1"/>
    <rect x="187" y="221" width="1" height="1"/>
    <rect x="185" y="249" width="1" height="1"/>
    <rect x="182" y="183" width="1" height="1"/>
    <rect x="244" y="245" width="1" height="1"/>
    <rect x="191" y="242" width="1" height="1"/>
    <rect x="224" y="180" width="1" height="1"/>
    <rect x="197" y="183" width="1" height="1"/>
    <rect x="217" y="176" width="1" height="1"/>
    <rect x="182" y="239" width="1" height="1"/>
    <rect x="192" y="176" width="1" height="1"/>
  </g>
  <path d="M230.21 42.32Q228.66 44.64 227.48 47.03Q226.3 49.41 223.56 50.99Q220.81 52.57 217.4 53.46Q214 54.34 210.22 54.16Q206.43 53.97 204 51.74Q201.56 49.51 200.68 47.01Q199.8 44.5 198.26 42.25Q196.72 40 196.65 37.24Q196.58 34.48 199.37 32.72Q202.16 30.95 204.71 29.25Q207.26 27.56 210.63 27.1Q214 26.64 217.71 26.47Q221.42 26.29 224.21 28.18Q226.99 30.07 229.73 32.11Q232.48 34.15 232.11 37.07Q231.75 40 230.21 42.32Z" fill="#ddd6c7" opacity="0.5"/>
  <path d="M230.21 42.32Q228.66 44.64 227.48 47.03Q226.3 49.41 223.56 50.99Q220.81 52.57 217.4 53.46Q214 54.34 210.22 54.16Q206.43 53.97 204 51.74Q201.56 49.51 200.68 47.01Q199.8 44.5 198.26 42.25Q196.72 40 196.65 37.24Q196.58 34.48 199.37 32.72Q202.16 30.95 204.71 29.25Q207.26 27.56 210.63 27.1Q214 26.64 217.71 26.47Q221.42 26.29 224.21 28.18Q226.99 30.07 229.73 32.11Q232.48 34.15 232.11 37.07Q231.75 40 230.21 42.32Z" fill="none" stroke="#d0c6b1" stroke-width="1.1" opacity="0.45"/>
  <rect x="2" y="2" width="81" height="1" fill="#d6d4cb"/>
  <rect x="2" y="2" width="1" height="81" fill="#d6d4cb"/>
  <rect x="2" y="87" width="81" height="1" fill="#d6d4cb"/>
  <rect x="2" y="87" width="1" height="82" fill="#d6d4cb"/>
  <rect x="2" y="173" width="81" height="1" fill="#d6d4cb"/>
  <rect x="2" y="173" width="1" height="81" fill="#d6d4cb"/>
  <rect x="87" y="2" width="82" height="1" fill="#d6d4cb"/>
  <rect x="87" y="2" width="1" height="81" fill="#d6d4cb"/>
  <rect x="87" y="87" width="82" height="1" fill="#d6d4cb"/>
  <rect x="87" y="87" width="1" height="82" fill="#d6d4cb"/>
  <rect x="87" y="173" width="82" height="1" fill="#d6d4cb"/>
  <rect x="87" y="173" width="1" height="81" fill="#d6d4cb"/>
  <rect x="173" y="2" width="81" height="1" fill="#d6d4cb"/>
  <rect x="173" y="2" width="1" height="81" fill="#d6d4cb"/>
  <rect x="173" y="87" width="81" height="1" fill="#d6d4cb"/>
  <rect x="173" y="87" width="1" height="82" fill="#d6d4cb"/>
  <rect x="173" y="173" width="81" height="1" fill="#d6d4cb"/>
  <rect x="173" y="173" width="1" height="81" fill="#d6d4cb"/>
  <g fill="#b5b3aa">
    <rect x="0" y="83" width="256" height="4"/>
    <rect x="0" y="169" width="256" height="4"/>
    <rect x="0" y="254" width="256" height="2"/>
    <rect x="0" y="0" width="256" height="2"/>
    <rect x="83" y="0" width="4" height="256"/>
    <rect x="169" y="0" width="4" height="256"/>
    <rect x="254" y="0" width="2" height="256"/>
    <rect x="0" y="0" width="2" height="256"/>
  </g>
  <rect x="96" y="107" width="64" height="42" fill="#f0efea"/>
  <rect x="99" y="110" width="58" height="36" fill="#fbfbf8"/>
  <rect x="99" y="110" width="58" height="1" fill="#e4e3dd"/>
  <rect x="99" y="110" width="1" height="36" fill="#e4e3dd"/>
  <rect x="127" y="110" width="2" height="36" fill="#efeee9"/>
</svg>
