<svg xmlns="http://www.w3.org/2000/svg" width="256" height="64" viewBox="0 0 256 64">
<ellipse cx="124" cy="60" rx="112" ry="4" fill="#000000" opacity="0.28"/>
<path d="M70 58L150 61" stroke="#0c0c0d" stroke-width="8" stroke-linecap="round" fill="none"/><path d="M70 58L150 61" stroke="#1c1c1e" stroke-width="4" stroke-linecap="round" fill="none"/><path d="M104 52L110 60" stroke="#0c0c0d" stroke-width="7" stroke-linecap="round" fill="none"/><path d="M104 52L110 60" stroke="#27292c" stroke-width="3" stroke-linecap="round" fill="none"/>
<path d="M120 40L158 28" stroke="#1a1c1f" stroke-width="17" stroke-linecap="round" fill="none"/><path d="M120 40L158 28" stroke="#a9aba8" stroke-width="13" stroke-linecap="round" fill="none"/><path d="M120 37L158 25" stroke="#d4d6d3" stroke-width="6" stroke-linecap="round" fill="none"/>
<path d="M158 28L184 54" stroke="#1a1c1f" stroke-width="15" stroke-linecap="round" fill="none"/><path d="M158 28L184 54" stroke="#a9aba8" stroke-width="11" stroke-linecap="round" fill="none"/><path d="M160 26L186 52" stroke="#d4d6d3" stroke-width="5" stroke-linecap="round" fill="none"/>
<ellipse cx="158" cy="28" rx="8" ry="8" fill="#1a1c1f"/><ellipse cx="158" cy="28" rx="6" ry="6" fill="#35383b"/><ellipse cx="157" cy="27" rx="3.6" ry="3.6" fill="#4a4e52"/>
<path d="M182 50L204 50L206 60L184 62Z" fill="#1a1c1f" stroke="#1a1c1f" stroke-width="3" stroke-linejoin="round"/><path d="M184 51L203 51L205 59L186 60Z" fill="#d4d6d3"/>
<path d="M124 47L170 51" stroke="#1a1c1f" stroke-width="19" stroke-linecap="round" fill="none"/><path d="M124 47L170 51" stroke="#a9aba8" stroke-width="15" stroke-linecap="round" fill="none"/><path d="M124 43L170 47" stroke="#d4d6d3" stroke-width="7" stroke-linecap="round" fill="none"/>
<ellipse cx="170" cy="51" rx="8.5" ry="8.5" fill="#1a1c1f"/><ellipse cx="170" cy="51" rx="6.5" ry="6.5" fill="#35383b"/><ellipse cx="169" cy="50" rx="4" ry="4" fill="#4a4e52"/>
<path d="M170 51L218 56" stroke="#1a1c1f" stroke-width="17" stroke-linecap="round" fill="none"/><path d="M170 51L218 56" stroke="#a9aba8" stroke-width="13" stroke-linecap="round" fill="none"/><path d="M170 47L218 52" stroke="#d4d6d3" stroke-width="6" stroke-linecap="round" fill="none"/>
<path d="M216 49L244 50L246 61L218 62Z" fill="#1a1c1f" stroke="#1a1c1f" stroke-width="3" stroke-linejoin="round"/><path d="M218 50L243 51L245 60L220 61Z" fill="#d4d6d3"/>
<ellipse cx="122" cy="46" rx="9" ry="9" fill="#1a1c1f"/><ellipse cx="122" cy="46" rx="7" ry="7" fill="#35383b"/><ellipse cx="121" cy="45" rx="4.5" ry="4.5" fill="#4a4e52"/>
<path d="M46 30L52 27L112 28L124 34L126 50L120 58L54 58L44 52Z" fill="#1a1c1f" stroke="#1a1c1f" stroke-width="4" stroke-linejoin="round"/><path d="M46 30L52 27L112 28L124 34L126 50L120 58L54 58L44 52Z" fill="#a9aba8"/><path d="M50 31L54 29L110 30L119 36L120 44L58 44L48 40Z" fill="#d4d6d3"/>
<path d="M56 31L100 32L104 46L60 46Z" fill="#175596" stroke="#1a1c1f" stroke-width="1.4" stroke-linejoin="round"/><path d="M60 33L96 34L98 41L62 41Z" fill="#1e6fbf"/>
<path d="M52 36L80 52" stroke="#1a1c1f" stroke-width="16" stroke-linecap="round" fill="none"/><path d="M52 36L80 52" stroke="#a9aba8" stroke-width="12" stroke-linecap="round" fill="none"/><path d="M54 33L82 49" stroke="#d4d6d3" stroke-width="5.5" stroke-linecap="round" fill="none"/>
<ellipse cx="80" cy="52" rx="7" ry="7" fill="#1a1c1f"/><ellipse cx="80" cy="52" rx="5" ry="5" fill="#35383b"/><ellipse cx="79" cy="51" rx="3" ry="3" fill="#4a4e52"/>
<path d="M80 52L106 46" stroke="#1a1c1f" stroke-width="14" stroke-linecap="round" fill="none"/><path d="M80 52L106 46" stroke="#a9aba8" stroke-width="10" stroke-linecap="round" fill="none"/><path d="M81 49L107 43" stroke="#d4d6d3" stroke-width="4.5" stroke-linecap="round" fill="none"/>
<path d="M104 41L114 40L116 48L106 50Z" fill="#1a1c1f" stroke="#1a1c1f" stroke-width="3" stroke-linejoin="round"/><path d="M105 42L113 41L114 47L107 48Z" fill="#a9aba8"/>
<ellipse cx="50" cy="33" rx="12" ry="9.5" fill="#1a1c1f"/><ellipse cx="50" cy="33" rx="10" ry="7.5" fill="#175596"/><ellipse cx="48.5" cy="31.5" rx="6.4" ry="4.8" fill="#1e6fbf"/>
<path d="M44 40L36 41" stroke="#1a1c1f" stroke-width="13" stroke-linecap="round" fill="none"/><path d="M44 40L36 41" stroke="#35383b" stroke-width="9" stroke-linecap="round" fill="none"/>
<ellipse cx="27" cy="42" rx="17" ry="13" fill="#1a1c1f"/><ellipse cx="27" cy="42" rx="15" ry="11" fill="#a9aba8"/><ellipse cx="24" cy="38" rx="9" ry="6.5" fill="#d4d6d3"/>
<path d="M13 38L41 37L41 43L13 44Z" fill="#2b2e31" stroke="#1a1c1f" stroke-width="1.4" stroke-linejoin="round"/><path d="M15 39L39 38.5L39 40L15 40.5Z" fill="#4a4e52"/>
</svg>
