<svg xmlns="http://www.w3.org/2000/svg" width="256" height="256" viewBox="0 0 256 256">
<path d="M142.7 52.6L142.7 52.3" stroke="#0c0c0d" stroke-width="8.1" stroke-linecap="round" fill="none"/><path d="M142.7 52.6L142.7 52.3" stroke="#27292c" stroke-width="4.1" stroke-linecap="round" fill="none"/><path d="M142.3 52.1L142.3 51.9" stroke="#3a3d40" stroke-width="2.3" stroke-linecap="round" fill="none"/>
<path d="M145.5 37.4L145 48.2L149.9 46.8L146.8 51.1L156.5 54.7L146.2 54.3L147.5 59.2L143.5 56.1L139.9 65.7L140.3 55.5L135.4 56.8L138.5 52.8L128.9 49L139.2 49.5L137.8 44.3L141.9 47.6Z" fill="#ffd36a" stroke="#e08a1e" stroke-width="1.2" stroke-linejoin="round"/><path d="M144.2 43.9L144 49.9L146.7 49.1L144.9 51.5L150.3 53.5L144.6 53.2L145.3 56L143.1 54.2L141.1 59.5L141.4 53.9L138.7 54.6L140.4 52.4L135.1 50.3L140.7 50.6L140 47.7L142.2 49.5Z" fill="#ffffff"/>
<path d="M142.7 53.7L142.7 52.6" stroke="#0c0c0d" stroke-width="6.8" stroke-linecap="round" fill="none"/><path d="M142.7 53.7L142.7 52.6" stroke="#27292c" stroke-width="2.8" stroke-linecap="round" fill="none"/><path d="M142.2 53.7L142.2 52.6" stroke="#3a3d40" stroke-width="1.5" stroke-linecap="round" fill="none"/>
<path d="M141.8 43.1L141.8 43.2L143.6 43.2L143.6 43.1Z" fill="#0c0c0d" stroke="#0c0c0d" stroke-width="4" stroke-linejoin="round"/><path d="M141.8 43.2L141.8 50.7L143.6 50.7L143.6 43.2Z" fill="#0c0c0d" stroke="#0c0c0d" stroke-width="4" stroke-linejoin="round"/><path d="M141.8 43.1L141.8 43.2L143.6 43.2L143.6 43.1Z" fill="#3a3d40"/><path d="M141.8 43.2L141.8 50.7L143.6 50.7L143.6 43.2Z" fill="#3a3d40"/>
<path d="M139.8 51.3L139.8 50.1L145.5 50.1L145.5 51.3Z" fill="#0c0c0d" stroke="#0c0c0d" stroke-width="4" stroke-linejoin="round"/><path d="M139.8 59L139.8 51.3L145.5 51.3L145.5 59Z" fill="#0c0c0d" stroke="#0c0c0d" stroke-width="4" stroke-linejoin="round"/><path d="M139.8 51.3L139.8 50.1L145.5 50.1L145.5 51.3Z" fill="#3a3d40"/><path d="M139.8 59L139.8 51.3L145.5 51.3L145.5 59Z" fill="#3a3d40"/>
<path d="M139.8 52L139.8 50.9L145.6 50.9L145.6 52Z" fill="#3a3d40"/><path d="M139.8 53L139.8 52L145.6 52L145.6 53Z" fill="#3a3d40"/>
<ellipse cx="142.7" cy="59.4" rx="7.5" ry="8.1" fill="#1a1c1f"/><ellipse cx="142.7" cy="59.4" rx="5.5" ry="6.1" fill="#a9aba8"/><ellipse cx="141.9" cy="58.2" rx="3.5" ry="3.9" fill="#d4d6d3"/>
<path d="M141 70.7L141 70.3L144.3 70.3L144.3 70.7Z" fill="#0c0c0d" stroke="#0c0c0d" stroke-width="4" stroke-linejoin="round"/><path d="M141 80.6L141 70.7L144.3 70.7L144.3 80.6Z" fill="#0c0c0d" stroke="#0c0c0d" stroke-width="4" stroke-linejoin="round"/><path d="M141 70.7L141 70.3L144.3 70.3L144.3 70.7Z" fill="#3a3d40"/><path d="M141 80.6L141 70.7L144.3 70.7L144.3 80.6Z" fill="#3a3d40"/>
<path d="M141 59.6L141 59.1L144.3 59.1L144.3 59.6Z" fill="#0c0c0d" stroke="#0c0c0d" stroke-width="4" stroke-linejoin="round"/><path d="M141 71L141 59.6L144.3 59.6L144.3 71Z" fill="#0c0c0d" stroke="#0c0c0d" stroke-width="4" stroke-linejoin="round"/><path d="M141 59.6L141 59.1L144.3 59.1L144.3 59.6Z" fill="#3a3d40"/><path d="M141 71L141 59.6L144.3 59.6L144.3 71Z" fill="#3a3d40"/>
<path d="M126.8 67L138.1 61.6" stroke="#1a1c1f" stroke-width="15.8" stroke-linecap="round" fill="none"/><path d="M126.8 67L138.1 61.6" stroke="#a9aba8" stroke-width="11.8" stroke-linecap="round" fill="none"/><path d="M126 65.3L137.2 59.8" stroke="#d4d6d3" stroke-width="6.5" stroke-linecap="round" fill="none"/>
<path d="M140.4 52.1L140.4 50.7L145 50.7L145 52.1Z" fill="#0c0c0d" stroke="#0c0c0d" stroke-width="4" stroke-linejoin="round"/><path d="M140.4 60.9L140.4 60.4L145 60.4L145 60.9Z" fill="#0c0c0d" stroke="#0c0c0d" stroke-width="4" stroke-linejoin="round"/><path d="M140.4 60.4L140.4 52.1L145 52.1L145 60.4Z" fill="#0c0c0d" stroke="#0c0c0d" stroke-width="4" stroke-linejoin="round"/><path d="M140.4 52.1L140.4 50.7L145 50.7L145 52.1Z" fill="#3a3d40"/><path d="M140.4 60.9L140.4 60.4L145 60.4L145 60.9Z" fill="#1c1c1e"/><path d="M140.4 60.4L140.4 52.1L145 52.1L145 60.4Z" fill="#3a3d40"/>
<path d="M141.3 49.8L141.3 48.5L144.1 48.5L144.1 49.8Z" fill="#0c0c0d" stroke="#0c0c0d" stroke-width="4" stroke-linejoin="round"/><path d="M141.3 52L141.3 49.8L144.1 49.8L144.1 52Z" fill="#0c0c0d" stroke="#0c0c0d" stroke-width="4" stroke-linejoin="round"/><path d="M141.3 49.8L141.3 48.5L144.1 48.5L144.1 49.8Z" fill="#3a3d40"/><path d="M141.3 52L141.3 49.8L144.1 49.8L144.1 52Z" fill="#3a3d40"/>
<path d="M140.3 52.8L140.3 51.5L145 51.5L145 52.8Z" fill="#3a3d40"/><path d="M140.3 53.8L140.3 52.8L145 52.8L145 53.8Z" fill="#3a3d40"/>
<ellipse cx="121.8" cy="69.4" rx="7.4" ry="7.4" fill="#1a1c1f"/><ellipse cx="121.8" cy="69.4" rx="5.4" ry="5.4" fill="#35383b"/><ellipse cx="121" cy="68.4" rx="3.4" ry="3.4" fill="#4a4e52"/>
<path d="M140.9 60.1L140.9 59.9L144.5 59.9L144.5 60.1Z" fill="#0c0c0d" stroke="#0c0c0d" stroke-width="4" stroke-linejoin="round"/><path d="M140.9 72.2L140.9 71.5L144.5 71.5L144.5 72.2Z" fill="#0c0c0d" stroke="#0c0c0d" stroke-width="4" stroke-linejoin="round"/><path d="M140.9 71.5L140.9 60.1L144.5 60.1L144.5 71.5Z" fill="#0c0c0d" stroke="#0c0c0d" stroke-width="4" stroke-linejoin="round"/><path d="M140.9 60.1L140.9 59.9L144.5 59.9L144.5 60.1Z" fill="#3a3d40"/><path d="M140.9 72.2L140.9 71.5L144.5 71.5L144.5 72.2Z" fill="#1c1c1e"/><path d="M140.9 71.5L140.9 60.1L144.5 60.1L144.5 71.5Z" fill="#3a3d40"/>
<path d="M141.5 47L141.5 46.7L143.8 46.7L143.8 47Z" fill="#0c0c0d" stroke="#0c0c0d" stroke-width="4" stroke-linejoin="round"/><path d="M141.5 49.8L141.5 47L143.8 47L143.8 49.8Z" fill="#0c0c0d" stroke="#0c0c0d" stroke-width="4" stroke-linejoin="round"/><path d="M141.5 47L141.5 46.7L143.8 46.7L143.8 47Z" fill="#3a3d40"/><path d="M141.5 49.8L141.5 47L143.8 47L143.8 49.8Z" fill="#3a3d40"/>
<ellipse cx="142.7" cy="66.2" rx="7.5" ry="8.1" fill="#1a1c1f"/><ellipse cx="142.7" cy="66.2" rx="5.5" ry="6.1" fill="#a9aba8"/><ellipse cx="141.9" cy="65" rx="3.5" ry="3.9" fill="#d4d6d3"/>
<path d="M159.5 82.8L147.5 71" stroke="#1a1c1f" stroke-width="15.8" stroke-linecap="round" fill="none"/><path d="M159.5 82.8L147.5 71" stroke="#a9aba8" stroke-width="11.8" stroke-linecap="round" fill="none"/><path d="M160.9 81.5L148.9 69.6" stroke="#d4d6d3" stroke-width="6.5" stroke-linecap="round" fill="none"/>
<path d="M109.4 252.5L102.1 252.5L102.1 248.2L104.2 243L109.4 241.7Z" fill="#1a1c1f" stroke="#1a1c1f" stroke-width="4" stroke-linejoin="round"/><path d="M109.4 241.7L109.4 252.5L122.4 252.5L122.4 241.7Z" fill="#1a1c1f" stroke="#1a1c1f" stroke-width="4" stroke-linejoin="round"/><path d="M109.4 252.5L102.1 252.5L102.1 248.2L104.2 243L109.4 241.7Z" fill="#d4d6d3"/><path d="M109.4 241.7L109.4 252.5L122.4 252.5L122.4 241.7Z" fill="#d4d6d3"/>
<path d="M109.1 254L101.4 254L101.4 252.1L109.1 252.1Z" fill="#1a1c1f" stroke="#1a1c1f" stroke-width="4" stroke-linejoin="round"/><path d="M109.1 252.1L109.1 254L123.1 254L123.1 252.1Z" fill="#1a1c1f" stroke="#1a1c1f" stroke-width="4" stroke-linejoin="round"/><path d="M109.1 254L101.4 254L101.4 252.1L109.1 252.1Z" fill="#4a4e52"/><path d="M109.1 252.1L109.1 254L123.1 254L123.1 252.1Z" fill="#4a4e52"/>
<ellipse cx="164.8" cy="88.1" rx="7.4" ry="7.4" fill="#1a1c1f"/><ellipse cx="164.8" cy="88.1" rx="5.4" ry="5.4" fill="#35383b"/><ellipse cx="164" cy="87" rx="3.4" ry="3.4" fill="#4a4e52"/>
<path d="M106 71.4L116.5 70.1" stroke="#1a1c1f" stroke-width="17.3" stroke-linecap="round" fill="none"/><path d="M106 71.4L116.5 70.1" stroke="#a9aba8" stroke-width="13.3" stroke-linecap="round" fill="none"/><path d="M105.7 69.2L116.3 67.9" stroke="#d4d6d3" stroke-width="7.3" stroke-linecap="round" fill="none"/>
<path d="M139.8 69L139.8 54.1L145.5 54.1L145.5 69Z" fill="#0c0c0d" stroke="#0c0c0d" stroke-width="4" stroke-linejoin="round"/><path d="M139.8 69L139.8 54.1L145.5 54.1L145.5 69Z" fill="#3a3d40"/>
<path d="M139.8 56.2L139.8 55L145.6 55L145.6 56.2Z" fill="#3a3d40"/>
<ellipse cx="140.2" cy="139.7" rx="9" ry="9" fill="#1a1c1f"/><ellipse cx="140.2" cy="139.7" rx="7" ry="7" fill="#35383b"/><ellipse cx="139.1" cy="138.3" rx="4.5" ry="4.5" fill="#4a4e52"/>
<ellipse cx="115.8" cy="139.7" rx="9" ry="9" fill="#1a1c1f"/><ellipse cx="115.8" cy="139.7" rx="7" ry="7" fill="#35383b"/><ellipse cx="114.8" cy="138.3" rx="4.5" ry="4.5" fill="#4a4e52"/>
<ellipse cx="113.9" cy="242.5" rx="7.1" ry="7.1" fill="#1a1c1f"/><ellipse cx="113.9" cy="242.5" rx="5.1" ry="5.1" fill="#35383b"/><ellipse cx="113.2" cy="241.5" rx="3.3" ry="3.3" fill="#4a4e52"/>
<ellipse cx="112.6" cy="190.8" rx="6.9" ry="6.9" fill="#1a1c1f"/><ellipse cx="112.6" cy="190.8" rx="4.9" ry="4.9" fill="#a9aba8"/><ellipse cx="111.9" cy="189.9" rx="3.1" ry="3.1" fill="#d4d6d3"/>
<ellipse cx="138.8" cy="44.6" rx="13.9" ry="18.1" fill="#1a1c1f"/><ellipse cx="138.8" cy="44.6" rx="11.9" ry="16.1" fill="#a9aba8"/><ellipse cx="137.1" cy="41.5" rx="7.6" ry="10.3" fill="#d4d6d3"/><path d="M150.6 43L150.9 43.3L149.4 50.3L149.1 50Z" fill="#4a4e52" stroke="#1a1c1f" stroke-width="1.2" stroke-linejoin="round"/>
<path d="M113.6 200.1L113.9 234.2" stroke="#1a1c1f" stroke-width="18.8" stroke-linecap="round" fill="none"/><path d="M113.6 200.1L113.9 234.2" stroke="#a9aba8" stroke-width="14.8" stroke-linecap="round" fill="none"/><path d="M111.2 200.1L111.4 234.2" stroke="#d4d6d3" stroke-width="8.2" stroke-linecap="round" fill="none"/>
<ellipse cx="113.6" cy="190.8" rx="8.7" ry="8.7" fill="#1a1c1f"/><ellipse cx="113.6" cy="190.8" rx="6.7" ry="6.7" fill="#35383b"/><ellipse cx="112.6" cy="189.6" rx="4.3" ry="4.3" fill="#4a4e52"/>
<path d="M124.9 67.5L136.7 56.4" stroke="#1a1c1f" stroke-width="15" stroke-linecap="round" fill="none"/><path d="M124.9 67.5L136.7 56.4" stroke="#35383b" stroke-width="11" stroke-linecap="round" fill="none"/><path d="M123.7 66.1L135.4 55.1" stroke="#4a4e52" stroke-width="6.1" stroke-linecap="round" fill="none"/>
<path d="M152.2 73.5L160.6 83.2" stroke="#1a1c1f" stroke-width="17.3" stroke-linecap="round" fill="none"/><path d="M152.2 73.5L160.6 83.2" stroke="#a9aba8" stroke-width="13.3" stroke-linecap="round" fill="none"/><path d="M153.9 72.1L162.3 81.8" stroke="#d4d6d3" stroke-width="7.3" stroke-linecap="round" fill="none"/>
<ellipse cx="101.5" cy="71.9" rx="8.4" ry="8.4" fill="#1a1c1f"/><ellipse cx="101.5" cy="71.9" rx="6.4" ry="6.4" fill="#35383b"/><ellipse cx="100.6" cy="70.7" rx="4.1" ry="4.1" fill="#4a4e52"/>
<path d="M115.5 146.9L114 180.6" stroke="#1a1c1f" stroke-width="21.4" stroke-linecap="round" fill="none"/><path d="M115.5 146.9L114 180.6" stroke="#a9aba8" stroke-width="17.4" stroke-linecap="round" fill="none"/><path d="M112.7 146.7L111.1 180.5" stroke="#d4d6d3" stroke-width="9.6" stroke-linecap="round" fill="none"/>
<ellipse cx="147.9" cy="191.8" rx="6.9" ry="6.9" fill="#1a1c1f"/><ellipse cx="147.9" cy="191.8" rx="4.9" ry="4.9" fill="#a9aba8"/><ellipse cx="147.2" cy="190.9" rx="3.1" ry="3.1" fill="#d4d6d3"/>
<ellipse cx="99.7" cy="68.1" rx="12.1" ry="9.9" fill="#1a1c1f"/><ellipse cx="99.7" cy="68.1" rx="10.1" ry="7.9" fill="#175596"/><ellipse cx="98.3" cy="66.5" rx="6.4" ry="5.1" fill="#1e6fbf"/>
<path d="M112.3 110.9L113.5 121.1L112.9 130.7L143.1 130.7L141.8 121.1L142 110.9Z" fill="#1a1c1f" stroke="#1a1c1f" stroke-width="4" stroke-linejoin="round"/><path d="M112.3 110.9L113.5 121.1L112.9 130.7L143.1 130.7L141.8 121.1L142 110.9Z" fill="#35383b"/><path d="M119 113.4L116.7 121.1L119.8 128.2L131.2 128.2L131.9 121.1L130.3 113.4Z" fill="#4a4e52"/>
<path d="M113.3 63L107 66.2L104 72.6L104 81.5L105.9 94.3L108.2 107.1L110.9 114.8L143.8 114.8L146 107.1L147.5 94.3L148.1 81.5L146.8 72.6L142.8 66.2L136.1 63Z" fill="#1a1c1f" stroke="#1a1c1f" stroke-width="4" stroke-linejoin="round"/><path d="M113.3 63L107 66.2L104 72.6L104 81.5L105.9 94.3L108.2 107.1L110.9 114.8L143.8 114.8L146 107.1L147.5 94.3L148.1 81.5L146.8 72.6L142.8 66.2L136.1 63Z" fill="#a9aba8"/><path d="M118.5 65.5L110.9 66.2L108.7 72.6L108.9 81.5L110.5 94.3L112.4 107.1L118.4 112.3L130.8 112.3L132.8 107.1L132.9 94.3L132.6 81.5L131.8 72.6L130.2 66.2L127.1 65.5Z" fill="#d4d6d3"/><path d="M112.4 77L115 76.8L117.7 76.6L120.7 76.5L123.7 76.3L126.8 76.2L129.8 76L132.8 75.9L131.8 97.7L129.4 97.8L127 97.9L124.5 98.1L122.1 98.2L119.7 98.3L117.5 98.5L115.4 98.6Z" fill="#4a4e52" stroke="#1a1c1f" stroke-width="1.4" stroke-linejoin="round"/><path d="M115.4 80L118.1 79.8L120.9 79.7L123.8 79.5L126.7 79.4L129.6 79.2L129.8 81.3L126.8 81.4L123.9 81.6L121 81.7L118.1 81.9L115.5 82Z" fill="#7b8084"/><path d="M115.7 85.1L118.4 84.9L121.1 84.8L124 84.6L126.9 84.5L129.8 84.3L129.9 86.4L127 86.5L124.1 86.7L121.3 86.8L118.5 87L115.9 87.1Z" fill="#7b8084"/><path d="M116.1 90.2L118.7 90.1L121.4 89.9L124.3 89.8L127.1 89.6L129.9 89.5L130 91.5L127.2 91.6L124.3 91.8L121.6 91.9L118.9 92.1L116.3 92.2Z" fill="#7b8084"/><path d="M116.6 95.3L119.1 95.2L121.7 95L124.5 94.9L127.3 94.7L130 94.6L130.1 96.6L127.3 96.8L124.6 96.9L121.9 97.1L119.3 97.2L116.8 97.3Z" fill="#7b8084"/><path d="M117.8 70.9L119.9 70.8L122 70.7L124.1 70.5L126.3 70.4L126.6 73.6L124.3 73.7L122.1 73.8L119.8 74L117.7 74.1Z" fill="#1e6fbf" stroke="#1a1c1f" stroke-width="1.0" stroke-linejoin="round"/>
<ellipse cx="146" cy="191.8" rx="8.7" ry="8.7" fill="#1a1c1f"/><ellipse cx="146" cy="191.8" rx="6.7" ry="6.7" fill="#35383b"/><ellipse cx="145.1" cy="190.6" rx="4.3" ry="4.3" fill="#4a4e52"/>
<path d="M141 147L144.8 181.4" stroke="#1a1c1f" stroke-width="21.4" stroke-linecap="round" fill="none"/><path d="M141 147L144.8 181.4" stroke="#a9aba8" stroke-width="17.4" stroke-linecap="round" fill="none"/><path d="M138.1 147.3L142 181.7" stroke="#d4d6d3" stroke-width="9.6" stroke-linecap="round" fill="none"/>
<path d="M112 125L108.8 128.8L108.2 136.5L110.7 145.5L115.2 149.3L140.8 149.3L145.3 145.5L147.8 136.5L147.2 128.8L144 125Z" fill="#1a1c1f" stroke="#1a1c1f" stroke-width="4" stroke-linejoin="round"/><path d="M112 125L108.8 128.8L108.2 136.5L110.7 145.5L115.2 149.3L140.8 149.3L145.3 145.5L147.8 136.5L147.2 128.8L144 125Z" fill="#a9aba8"/><path d="M119.3 127.5L113 128.8L112.5 136.5L114.5 145.5L121 146.8L130.7 146.8L133.2 145.5L134 136.5L133.8 128.8L131.4 127.5Z" fill="#d4d6d3"/>
<path d="M146.6 241.7L157.2 243L161.5 248.2L161.5 252.5L146.6 252.5Z" fill="#1a1c1f" stroke="#1a1c1f" stroke-width="4" stroke-linejoin="round"/><path d="M134.6 241.7L134.6 252.5L146.6 252.5L146.6 241.7Z" fill="#1a1c1f" stroke="#1a1c1f" stroke-width="4" stroke-linejoin="round"/><path d="M146.6 241.7L157.2 243L161.5 248.2L161.5 252.5L146.6 252.5Z" fill="#a9aba8"/><path d="M134.6 241.7L134.6 252.5L146.6 252.5L146.6 241.7Z" fill="#d4d6d3"/>
<path d="M146.7 252.1L162.3 252.1L162.3 254L146.7 254Z" fill="#1a1c1f" stroke="#1a1c1f" stroke-width="4" stroke-linejoin="round"/><path d="M133.7 252.1L133.7 254L146.7 254L146.7 252.1Z" fill="#1a1c1f" stroke="#1a1c1f" stroke-width="4" stroke-linejoin="round"/><path d="M146.7 252.1L162.3 252.1L162.3 254L146.7 254Z" fill="#35383b"/><path d="M133.7 252.1L133.7 254L146.7 254L146.7 252.1Z" fill="#4a4e52"/>
<ellipse cx="148.7" cy="69.4" rx="8.4" ry="8.4" fill="#1a1c1f"/><ellipse cx="148.7" cy="69.4" rx="6.4" ry="6.4" fill="#35383b"/><ellipse cx="147.8" cy="68.2" rx="4.1" ry="4.1" fill="#4a4e52"/>
<path d="M145.8 201L144.9 234.4" stroke="#1a1c1f" stroke-width="18.8" stroke-linecap="round" fill="none"/><path d="M145.8 201L144.9 234.4" stroke="#a9aba8" stroke-width="14.8" stroke-linecap="round" fill="none"/><path d="M143.3 200.9L142.4 234.3" stroke="#d4d6d3" stroke-width="8.2" stroke-linecap="round" fill="none"/>
<ellipse cx="150.1" cy="65.3" rx="12.1" ry="9.9" fill="#1a1c1f"/><ellipse cx="150.1" cy="65.3" rx="10.1" ry="7.9" fill="#175596"/><ellipse cx="148.6" cy="63.8" rx="6.4" ry="5.1" fill="#1e6fbf"/>
<ellipse cx="144.6" cy="242.5" rx="7.1" ry="7.1" fill="#1a1c1f"/><ellipse cx="144.6" cy="242.5" rx="5.1" ry="5.1" fill="#35383b"/><ellipse cx="143.9" cy="241.5" rx="3.3" ry="3.3" fill="#4a4e52"/>
</svg>
