<svg xmlns="http://www.w3.org/2000/svg" width="64" height="64" viewBox="0 0 64 64">
<path d="M32.9 32.4L34.7 35.8L42.6 36.1L36.6 31Z" fill="#ff9a2e" stroke="#c4560e" stroke-width="0.8" stroke-linejoin="round"/><path d="M32.6 32.8L32.5 37L39.7 42.2L36.7 33.9Z" fill="#ff9a2e" stroke="#c4560e" stroke-width="0.8" stroke-linejoin="round"/><path d="M32.1 33L30 36.5L33.7 44.3L35.2 35.8Z" fill="#ff9a2e" stroke="#c4560e" stroke-width="0.8" stroke-linejoin="round"/><path d="M31.6 32.9L28 34.8L27.5 43.2L32.9 36.8Z" fill="#ff9a2e" stroke="#c4560e" stroke-width="0.8" stroke-linejoin="round"/><path d="M31.2 32.5L27.9 31.6L24.4 36.9L30.7 35.9Z" fill="#ff9a2e" stroke="#c4560e" stroke-width="0.8" stroke-linejoin="round"/><path d="M31.1 31.6L30.2 28.4L24.4 28.9L28.2 33.2Z" fill="#ff9a2e" stroke="#c4560e" stroke-width="0.8" stroke-linejoin="round"/><path d="M31.4 31.2L32.2 27.7L26.5 23.8L27.9 30.6Z" fill="#ff9a2e" stroke="#c4560e" stroke-width="0.8" stroke-linejoin="round"/><path d="M31.8 31L33.9 28.5L30.2 24L28.8 29.7Z" fill="#ff9a2e" stroke="#c4560e" stroke-width="0.8" stroke-linejoin="round"/><path d="M32.5 31.1L36.1 30.2L37.3 23L31.6 27.5Z" fill="#ff9a2e" stroke="#c4560e" stroke-width="0.8" stroke-linejoin="round"/><path d="M33 31.8L36.2 33.8L42.7 29.8L35.2 28.7Z" fill="#ff9a2e" stroke="#c4560e" stroke-width="0.8" stroke-linejoin="round"/><path d="M32.9 32.4L34.5 34.7L40.5 35.3L35.6 31.7Z" fill="#ffd36a"/><path d="M32.6 32.8L32.9 35.8L38.2 40.2L35.4 33.9Z" fill="#ffd36a"/><path d="M32.1 33L30.9 35.7L33.4 41.9L34.1 35.3Z" fill="#ffd36a"/><path d="M31.6 32.9L29.2 34.6L28.4 40.9L32.2 35.8Z" fill="#ffd36a"/><path d="M31.2 32.5L28.8 32.1L26 35.9L30.6 34.8Z" fill="#ffd36a"/><path d="M31.1 31.6L30.3 29.5L25.9 29.5L29 32.5Z" fill="#ffd36a"/><path d="M31.4 31.2L31.7 28.7L27.6 25.5L29 30.5Z" fill="#ffd36a"/><path d="M31.8 31L33 29.2L30.5 25.6L29.9 29.9Z" fill="#ffd36a"/><path d="M32.5 31.1L34.9 30.2L36.2 24.8L32.2 28.5Z" fill="#ffd36a"/><path d="M33 31.8L35.4 32.9L40.6 30.2L34.8 29.8Z" fill="#ffd36a"/><circle cx="32" cy="32" r="5" fill="#ffd36a" stroke="#c4560e" stroke-width="0.8"/><circle cx="32" cy="32" r="3.1" fill="#ffffff"/><path d="M32.9 32.4L33.9 33.6L37.3 34.1L34.4 32.1Z" fill="#ffffff"/><path d="M32.6 32.8L32.9 34.5L35.9 37.1L34.1 33.5Z" fill="#ffffff"/><path d="M32.1 33L31.6 34.5L32.9 38.2L33.1 34.3Z" fill="#ffffff"/><path d="M31.6 32.9L30.4 33.9L29.7 37.6L31.8 34.5Z" fill="#ffffff"/><path d="M31.2 32.5L29.9 32.4L28.2 34.4L30.8 33.7Z" fill="#ffffff"/><path d="M31.1 31.6L30.6 30.6L28.2 30.4L30 32Z" fill="#ffffff"/><path d="M31.4 31.2L31.5 29.8L29.3 27.9L30.2 30.7Z" fill="#ffffff"/><path d="M31.8 31L32.3 30L31.1 28L30.8 30.4Z" fill="#ffffff"/><path d="M32.5 31.1L33.8 30.5L34.6 27.5L32.4 29.7Z" fill="#ffffff"/><path d="M33 31.8L34.4 32.3L37.3 30.9L34 30.8Z" fill="#ffffff"/>
</svg>
